<?xml version="1.0" standalone="no"?>
<!DOCTYPE svg PUBLIC "-//W3C//DTD SVG 20010904//EN"
 "http://www.w3.org/TR/2001/REC-SVG-20010904/DTD/svg10.dtd">
<svg version="1.0" xmlns="http://www.w3.org/2000/svg"
 width="500.000000pt" height="500.000000pt" viewBox="0 0 500.000000 500.000000"
 preserveAspectRatio="xMidYMid meet">

<g transform="translate(0.000000,500.000000) scale(0.100000,-0.100000)"
fill="#000000" stroke="none">
<path d="M2182 4984 c-266 -32 -548 -121 -817 -259 -103 -52 -288 -172 -430
-278 -134 -101 -374 -360 -471 -509 -107 -165 -133 -207 -167 -268 -47 -86
-142 -311 -161 -380 -53 -192 -66 -248 -84 -360 -34 -199 -46 -408 -32 -563
30 -337 108 -669 211 -894 92 -202 287 -485 461 -668 300 -317 738 -584 1142
-695 227 -63 394 -85 641 -85 173 0 221 4 360 28 439 76 743 208 1120 486 103
76 338 306 429 421 133 168 262 372 317 500 17 41 42 93 54 115 13 22 37 85
53 140 27 89 44 158 87 360 43 199 46 628 7 835 -44 232 -122 487 -192 629
-51 103 -214 369 -288 471 -212 288 -450 495 -797 691 -418 237 -956 342
-1443 283z m346 -680 c12 -14 22 -34 22 -45 0 -35 -28 -76 -55 -81 -98 -19
-156 76 -83 137 38 32 81 29 116 -11z m-248 -241 c-1 -26 -39 -127 -51 -133
-8 -4 -75 -24 -149 -45 -74 -20 -155 -43 -179 -51 -24 -8 -110 -28 -190 -45
-144 -29 -234 -33 -334 -13 -36 7 -177 71 -177 80 0 3 13 21 29 39 16 18 31
39 33 47 4 10 11 8 29 -8 54 -47 98 -59 209 -58 104 1 106 1 380 91 151 50
284 93 295 96 33 8 105 8 105 0z m540 -25 c41 -11 131 -40 200 -65 189 -69
298 -93 410 -92 102 0 157 16 204 56 l26 22 11 -22 c6 -12 23 -34 37 -49 20
-22 23 -30 13 -42 -13 -16 -117 -57 -188 -76 -24 -6 -43 -14 -43 -19 0 -4 38
-85 85 -180 47 -95 85 -174 85 -176 0 -4 133 -289 196 -420 40 -84 144 -316
144 -322 0 -2 -21 -3 -47 -1 l-48 3 -45 91 c-54 109 -91 189 -227 489 -57 127
-109 234 -114 239 -5 6 -9 -147 -9 -402 l0 -412 -50 0 -50 0 0 408 c0 224 -4
413 -8 420 -10 14 -68 -104 -157 -318 -30 -72 -56 -129 -122 -270 -24 -52 -58
-129 -75 -170 -35 -84 -46 -102 -59 -94 -5 3 -17 1 -26 -5 -47 -26 44 -31 533
-31 431 0 494 -2 494 -15 0 -28 -39 -156 -65 -212 -36 -79 -160 -200 -245
-241 -85 -40 -137 -51 -238 -52 -211 0 -403 138 -497 360 -23 54 -28 80 -29
155 l-1 90 68 150 c37 83 77 168 87 190 51 107 140 297 140 301 0 2 29 63 64
136 115 239 138 290 134 292 -1 2 -39 9 -83 16 -114 17 -224 44 -364 89 -67
22 -141 42 -164 46 -81 12 -107 25 -112 53 -3 15 -10 41 -15 58 -17 52 -14 56
33 49 23 -3 76 -15 117 -27z m-284 -15 c28 -30 34 -45 34 -81 0 -37 -6 -50
-34 -78 -44 -44 -88 -46 -133 -5 -56 51 -53 154 5 186 49 26 90 19 128 -22z
m-1050 -309 c24 -4 40 -16 54 -40 33 -53 162 -315 233 -474 36 -80 79 -173 96
-207 44 -87 151 -324 151 -333 0 -5 -21 -10 -47 -12 l-47 -3 -43 95 c-25 52
-58 123 -74 157 -16 34 -29 64 -29 66 0 3 -21 49 -46 103 -154 329 -178 381
-191 399 -11 16 -13 -45 -13 -393 l0 -412 -50 0 -50 0 -1 168 c0 92 0 246 1
342 1 186 -7 300 -21 300 -5 0 -9 -5 -9 -10 0 -6 -16 -46 -36 -88 -20 -42 -59
-129 -86 -192 -57 -130 -83 -190 -168 -375 -15 -33 -38 -86 -50 -117 -18 -44
-29 -58 -44 -58 -12 0 -27 -4 -35 -9 -29 -18 103 -23 573 -19 l476 3 0 -28 c0
-43 -48 -174 -86 -239 -49 -81 -136 -157 -240 -209 l-89 -44 -120 0 c-108 0
-127 3 -189 28 -165 67 -276 190 -339 377 -44 128 -34 175 83 425 83 176 130
277 130 281 0 20 264 546 268 534 2 -5 19 -12 38 -16z m1046 -978 c1 -1062 1
-1117 -11 -1129 -5 -5 -30 -7 -57 -5 l-49 3 -7 55 c-3 30 -6 506 -7 1057 l-1
1002 65 -1 65 -1 2 -981z m103 -1245 l231 -1 -6 -47 -5 -48 -402 -3 -403 -2 0
50 0 49 123 3 c67 2 147 2 177 1 30 -1 159 -2 285 -2z m495 -221 c14 -26 13
-73 -3 -93 -11 -16 -57 -17 -652 -15 l-640 3 -3 49 c-2 27 -1 55 2 62 5 12
107 14 646 14 617 -1 640 -1 650 -20z m328 -239 c2 -19 1 -44 -2 -57 l-6 -24
-1008 2 -1007 3 3 50 c2 27 9 53 15 57 7 4 460 7 1007 5 l995 -2 3 -34z"/>
</g>
</svg>
